<svg width="25" height="23" viewBox="0 0 25 23" fill="none" xmlns="http://www.w3.org/2000/svg">
<path d="M24.531 4.36591L18.8889 0L17.3066 1.73053L22.9488 6.09644L24.531 4.36591ZM7.21211 1.73053L5.64213 0L0 4.3546L1.58225 6.08513L7.21211 1.73053ZM12.8788 6.94474H11.039V13.7311L16.8651 16.9547L17.785 15.5634L12.8788 12.8828V6.94474ZM12.2655 2.42048C6.16955 2.42048 1.22655 6.97867 1.22655 12.6001C1.22655 18.2215 6.15728 22.7796 12.2655 22.7796C18.3615 22.7796 23.3045 18.2215 23.3045 12.6001C23.3045 6.97867 18.3615 2.42048 12.2655 2.42048ZM12.2655 20.5175C7.51875 20.5175 3.67965 16.9773 3.67965 12.6001C3.67965 8.22284 7.51875 4.68261 12.2655 4.68261C17.0122 4.68261 20.8514 8.22284 20.8514 12.6001C20.8514 16.9773 17.0122 20.5175 12.2655 20.5175Z" fill="#9A9A9A"/>
</svg>
